<svg xmlns="http://www.w3.org/2000/svg" xmlns:xlink="http://www.w3.org/1999/xlink" width="500" zoomAndPan="magnify" viewBox="0 0 375 374.999991" height="500" preserveAspectRatio="xMidYMid meet" version="1.0"><defs><filter x="0%" y="0%" width="100%" height="100%" id="279c1d1e1f"><feColorMatrix values="0 0 0 0 1 0 0 0 0 1 0 0 0 0 1 0 0 0 1 0" color-interpolation-filters="sRGB"/></filter><g/><clipPath id="2e759bc2ef"><path d="M 58.527344 170.148438 L 112.816406 170.148438 L 112.816406 213.851562 L 58.527344 213.851562 Z M 58.527344 170.148438 " clip-rule="nonzero"/></clipPath><clipPath id="271aa854a3"><path d="M 78.546875 170.148438 L 107.25 170.148438 C 108.988281 170.148438 110.621094 170.980469 111.636719 172.390625 C 112.652344 173.800781 112.929688 175.613281 112.378906 177.261719 L 102.554688 206.738281 C 101.136719 210.988281 97.160156 213.851562 92.683594 213.851562 L 63.976562 213.851562 C 62.238281 213.851562 60.609375 213.015625 59.59375 211.609375 C 58.574219 210.199219 58.300781 208.386719 58.847656 206.738281 L 68.675781 177.261719 C 70.089844 173.011719 74.066406 170.148438 78.546875 170.148438 Z M 78.546875 170.148438 " clip-rule="nonzero"/></clipPath><mask id="ae21278706"><g filter="url(#279c1d1e1f)"><rect x="-37.5" width="450" fill="#000000" y="-37.499999" height="449.999989" fill-opacity="0.8"/></g></mask><clipPath id="62477dfcb5"><path d="M 2.53125 0.101562 L 56.820312 0.101562 L 56.820312 43.808594 L 2.53125 43.808594 Z M 2.53125 0.101562 " clip-rule="nonzero"/></clipPath><clipPath id="b2b1c99a13"><path d="M 22.550781 0.101562 L 51.257812 0.101562 C 52.996094 0.101562 54.625 0.9375 55.640625 2.347656 C 56.65625 3.757812 56.933594 5.570312 56.386719 7.21875 L 46.558594 36.691406 C 45.144531 40.941406 41.167969 43.808594 36.6875 43.808594 L 7.980469 43.808594 C 6.246094 43.808594 4.613281 42.972656 3.597656 41.5625 C 2.582031 40.152344 2.304688 38.339844 2.855469 36.691406 L 12.679688 7.21875 C 14.09375 2.96875 18.070312 0.101562 22.550781 0.101562 Z M 22.550781 0.101562 " clip-rule="nonzero"/></clipPath><clipPath id="dbc6bd6bb7"><rect x="0" width="60" y="0" height="44"/></clipPath></defs><g clip-path="url(#2e759bc2ef)"><g clip-path="url(#271aa854a3)"><path fill="#a6a6a6" d="M 56.476562 170.148438 L 114.695312 170.148438 L 114.695312 213.851562 L 56.476562 213.851562 Z M 56.476562 170.148438 " fill-opacity="1" fill-rule="nonzero"/></g></g><g mask="url(#ae21278706)"><g transform="matrix(1, 0, 0, 1, 48, 162)"><g clip-path="url(#dbc6bd6bb7)"><g clip-path="url(#62477dfcb5)"><g clip-path="url(#b2b1c99a13)"><path fill="#000000" d="M 0.480469 0.101562 L 58.699219 0.101562 L 58.699219 43.808594 L 0.480469 43.808594 Z M 0.480469 0.101562 " fill-opacity="1" fill-rule="nonzero"/></g></g></g></g></g><g fill="#050419" fill-opacity="1"><g transform="translate(122.861384, 205.889094)"><g><path d="M 30.484375 -17.515625 C 30.484375 -13.90625 29.03125 -10.765625 26.78125 -8.453125 C 24.421875 -6.109375 21.171875 -4.65625 17.71875 -4.65625 C 14.265625 -4.65625 11.0625 -6.109375 8.765625 -8.453125 C 6.453125 -10.765625 5 -13.96875 5 -17.515625 C 5 -21.0625 6.453125 -24.265625 8.765625 -26.578125 C 11.0625 -28.921875 14.265625 -30.375 17.71875 -30.375 C 21.171875 -30.375 24.421875 -28.921875 26.78125 -26.578125 C 29.03125 -24.265625 30.484375 -21.125 30.484375 -17.515625 Z M -0.09375 -17.515625 C -0.09375 -12.5625 1.953125 -8.109375 5.109375 -4.859375 C 8.3125 -1.546875 12.8125 0.453125 17.71875 0.453125 C 22.671875 0.453125 27.125 -1.546875 30.375 -4.859375 C 33.53125 -8.109375 35.578125 -12.5625 35.578125 -17.515625 C 35.578125 -22.46875 33.53125 -26.921875 30.375 -30.171875 C 27.125 -33.4375 22.671875 -35.484375 17.71875 -35.484375 C 12.8125 -35.484375 8.3125 -33.4375 5.109375 -30.171875 C 1.953125 -26.921875 -0.09375 -22.46875 -0.09375 -17.515625 Z M -0.09375 -17.515625 "/></g></g></g><g fill="#050419" fill-opacity="1"><g transform="translate(161.54166, 205.889094)"><g><path d="M 7.703125 -15.359375 L 20.46875 0 L 27.03125 0 L 15.96875 -13.15625 C 21.96875 -14.21875 25.03125 -18.921875 25.03125 -23.875 C 25.03125 -29.421875 21.21875 -35.03125 13.609375 -35.03125 L 0.84375 -35.03125 L 0.84375 0 L 5.859375 0 L 5.859375 -29.921875 L 13.609375 -29.921875 C 17.859375 -29.921875 19.96875 -26.875 19.96875 -23.875 C 19.96875 -20.8125 17.859375 -17.765625 13.609375 -17.765625 L 7.703125 -17.765625 Z M 7.703125 -15.359375 "/></g></g></g><g fill="#050419" fill-opacity="1"><g transform="translate(188.662899, 205.889094)"><g><path d="M 24.921875 -26.171875 C 24.015625 -32.578125 18.421875 -35.390625 13.015625 -35.390625 C 8.953125 -35.390625 4.75 -33.78125 2.40625 -30.734375 C 0.90625 -28.78125 0.296875 -26.421875 0.5 -24.078125 L 0.5 -24.125 C 1.046875 -16.8125 7.453125 -15.609375 12.90625 -15.0625 C 16.421875 -14.71875 20.015625 -14.265625 20.625 -11.609375 C 20.71875 -11.15625 20.765625 -10.765625 20.765625 -10.40625 C 20.765625 -6.8125 16.671875 -4.703125 12.90625 -4.703125 C 9.65625 -4.703125 5.703125 -6.40625 5.359375 -9.65625 L 5.359375 -9.453125 L 5.3125 -10.203125 L 0.203125 -10.109375 L 0.25 -9.15625 C 0.90625 -2.90625 7.453125 0.296875 12.859375 0.296875 C 19.171875 0.296875 25.875 -3.609375 25.875 -10.359375 C 25.875 -11.0625 25.78125 -11.90625 25.625 -12.65625 C 24.265625 -18.265625 18.3125 -19.515625 13.515625 -20.125 C 9.765625 -20.46875 5.8125 -20.921875 5.5625 -24.515625 C 5.453125 -25.71875 5.703125 -26.875 6.40625 -27.78125 C 7.8125 -29.578125 10.40625 -30.375 12.765625 -30.421875 C 15.8125 -30.484375 19.21875 -29.125 19.921875 -25.96875 Z M 24.921875 -26.171875 "/></g></g></g><g fill="#050419" fill-opacity="1"><g transform="translate(217.135197, 205.889094)"><g><path d="M -2.5 -34.984375 L 10.453125 -14.265625 L 10.453125 0 L 15.5625 0 L 15.5625 -14.265625 L 28.578125 -34.984375 L 22.578125 -34.984375 L 13.015625 -19.625 L 3.453125 -34.984375 Z M -2.5 -34.984375 "/></g></g></g><g fill="#050419" fill-opacity="1"><g transform="translate(246.258006, 205.889094)"><g><path d="M 24.921875 -26.171875 C 24.015625 -32.578125 18.421875 -35.390625 13.015625 -35.390625 C 8.953125 -35.390625 4.75 -33.78125 2.40625 -30.734375 C 0.90625 -28.78125 0.296875 -26.421875 0.5 -24.078125 L 0.5 -24.125 C 1.046875 -16.8125 7.453125 -15.609375 12.90625 -15.0625 C 16.421875 -14.71875 20.015625 -14.265625 20.625 -11.609375 C 20.71875 -11.15625 20.765625 -10.765625 20.765625 -10.40625 C 20.765625 -6.8125 16.671875 -4.703125 12.90625 -4.703125 C 9.65625 -4.703125 5.703125 -6.40625 5.359375 -9.65625 L 5.359375 -9.453125 L 5.3125 -10.203125 L 0.203125 -10.109375 L 0.25 -9.15625 C 0.90625 -2.90625 7.453125 0.296875 12.859375 0.296875 C 19.171875 0.296875 25.875 -3.609375 25.875 -10.359375 C 25.875 -11.0625 25.78125 -11.90625 25.625 -12.65625 C 24.265625 -18.265625 18.3125 -19.515625 13.515625 -20.125 C 9.765625 -20.46875 5.8125 -20.921875 5.5625 -24.515625 C 5.453125 -25.71875 5.703125 -26.875 6.40625 -27.78125 C 7.8125 -29.578125 10.40625 -30.375 12.765625 -30.421875 C 15.8125 -30.484375 19.21875 -29.125 19.921875 -25.96875 Z M 24.921875 -26.171875 "/></g></g></g></svg>